<svg width="256" height="256" viewBox="0 0 256 256" fill="none" xmlns="http://www.w3.org/2000/svg">
<mask id="mask0" mask-type="alpha" maskUnits="userSpaceOnUse" x="0" y="0" width="256" height="256">
<path d="M222.631 256C243.661 256 256 241.213 256 216.075V50.091C256 18.2989 240.011 0 212.03 0C189.263 0 175.533 11.0903 163.02 39.1856L129.477 114.414H127.044L93.5017 39.5552C80.9885 11.4599 66.7373 0 44.4915 0C17.0319 0 0 19.2231 0 50.091V216.075C0 241.952 11.1229 256 31.6307 256C52.6599 256 64.9993 241.213 64.9993 216.075V113.49H68.4752L98.0204 180.401C107.058 200.734 114.5 216.075 129.477 216.075C144.454 216.075 148.768 201.288 158.153 180.401L187.699 113.49H191.001V216.075C191.001 241.952 202.124 256 222.631 256Z" fill="#33FFE6"/>
</mask>
<g mask="url(#mask0)">
<rect y="205" width="256" height="51" fill="#2BCCC2"/>
<rect y="154" width="256" height="51" fill="#B2E4AE"/>
<rect y="103" width="256" height="51" fill="#FFE39B"/>
<rect y="52" width="256" height="51" fill="#FFE39B"/>
<rect y="-2" width="256" height="54" fill="#E75959"/>
</g>
<path d="M121.293 189.379C120.398 188.732 119.147 188.933 118.5 189.828C117.853 190.723 118.054 191.974 118.949 192.621L121.293 189.379ZM137.522 192.552C138.379 191.855 138.508 190.595 137.811 189.738C137.114 188.881 135.855 188.751 134.998 189.448L137.522 192.552ZM118.949 192.621C119.764 193.21 121.142 194.034 122.77 194.719C124.385 195.398 126.392 196 128.421 196V192C127.13 192 125.679 191.602 124.32 191.031C122.974 190.466 121.862 189.79 121.293 189.379L118.949 192.621ZM128.421 196C130.461 196 132.402 195.392 133.944 194.699C135.492 194.004 136.77 193.163 137.522 192.552L134.998 189.448C134.52 189.837 133.539 190.496 132.305 191.051C131.065 191.608 129.701 192 128.421 192V196Z" fill="black"/>
<ellipse cx="113.061" cy="170" rx="7.06061" ry="7" fill="#1B1933"/>
<ellipse cx="108.017" cy="169" rx="1.00866" ry="1" fill="white"/>
<ellipse cx="110.539" cy="166.5" rx="1.51299" ry="1.5" fill="white"/>
<ellipse cx="143.32" cy="170" rx="7.06061" ry="7" fill="#1B1933"/>
<ellipse cx="138.277" cy="169" rx="1.00866" ry="1" fill="white"/>
<ellipse cx="140.799" cy="166.5" rx="1.51299" ry="1.5" fill="white"/>
</svg>
