<svg width="256" height="256" viewBox="0 0 256 256" fill="none" xmlns="http://www.w3.org/2000/svg">
<mask id="mask0" mask-type="alpha" maskUnits="userSpaceOnUse" x="0" y="0" width="256" height="256">
<path d="M222.631 256C243.661 256 256 241.213 256 216.075V50.091C256 18.2989 240.011 0 212.03 0C189.263 0 175.533 11.0903 163.02 39.1856L129.477 114.414H127.044L93.5017 39.5552C80.9885 11.4599 66.7373 0 44.4915 0C17.0319 0 0 19.2231 0 50.091V216.075C0 241.952 11.1229 256 31.6307 256C52.6599 256 64.9993 241.213 64.9993 216.075V113.49H68.4752L98.0204 180.401C107.058 200.734 116.269 174.08 129.477 174.08C142.512 174.08 148.768 201.288 158.153 180.401L187.699 113.49H191.001V216.075C191.001 241.952 202.124 256 222.631 256Z" fill="#33FFE6"/>
</mask>
<g mask="url(#mask0)">
<rect x="-3.32467" y="-5.49356" width="270.407" height="261.494" fill="#33FFE6"/>
<rect y="214.249" width="259.325" height="5.49356" fill="#00E0C5"/>
</g>
<mask id="mask1" mask-type="alpha" maskUnits="userSpaceOnUse" x="0" y="105" width="256" height="110">
<path d="M256 105.476H0V214.249H103.065L126.338 187.88H131.325L156.26 214.249H256V105.476Z" fill="#6833FF"/>
</mask>
<g mask="url(#mask1)">
<rect y="105.476" width="256" height="108.773" fill="#6833FF"/>
<path d="M136.42 109.773H121.797V177.682C121.797 181.548 124.931 184.682 128.797 184.682H129.42C133.286 184.682 136.42 181.548 136.42 177.682V109.773Z" stroke="#5A27E7" stroke-width="2"/>
<rect y="105.476" width="256" height="25.2704" fill="#4F23C7"/>
<rect x="8.86581" y="108.773" width="5.54113" height="18.6781" rx="2.77056" fill="#624DFC"/>
<rect x="24.381" y="108.773" width="5.54113" height="18.6781" rx="2.77056" fill="#624DFC"/>
<rect x="39.8961" y="108.773" width="5.54113" height="18.6781" rx="2.77056" fill="#624DFC"/>
<rect x="55.4113" y="108.773" width="5.54113" height="18.6781" rx="2.77056" fill="#624DFC"/>
<rect x="70.9264" y="108.773" width="5.54113" height="18.6781" rx="2.77056" fill="#624DFC"/>
<rect x="86.4416" y="108.773" width="5.54113" height="18.6781" rx="2.77056" fill="#624DFC"/>
<rect x="101.957" y="108.773" width="5.54113" height="18.6781" rx="2.77056" fill="#624DFC"/>
<rect x="117.472" y="108.773" width="5.54113" height="18.6781" rx="2.77056" fill="#624DFC"/>
<rect x="132.987" y="108.773" width="5.54113" height="18.6781" rx="2.77056" fill="#624DFC"/>
<rect x="148.502" y="108.773" width="5.54113" height="18.6781" rx="2.77056" fill="#624DFC"/>
<rect x="164.017" y="108.773" width="5.54113" height="18.6781" rx="2.77056" fill="#624DFC"/>
<rect x="179.532" y="108.773" width="5.54113" height="18.6781" rx="2.77056" fill="#624DFC"/>
<rect x="195.048" y="108.773" width="5.54113" height="18.6781" rx="2.77056" fill="#624DFC"/>
<rect x="210.563" y="108.773" width="5.54113" height="18.6781" rx="2.77056" fill="#624DFC"/>
<rect x="226.078" y="108.773" width="5.54113" height="18.6781" rx="2.77056" fill="#624DFC"/>
<rect x="241.593" y="108.773" width="5.54113" height="18.6781" rx="2.77056" fill="#624DFC"/>
<rect y="130.747" width="11.0823" height="83.5021" fill="#33FFE6" fill-opacity="0.13"/>
<rect x="244.918" y="130.747" width="11.0823" height="83.5021" fill="#33FFE6" fill-opacity="0.13"/>
<path d="M126.338 187.88L88.658 210.403H0V214.249H256V210.403H172.329L131.325 187.88H126.338Z" fill="#624DFC"/>
</g>
</svg>
